<svg id="Capa_1" enable-background="new 0 0 511.141 511.141" height="512" viewBox="0 0 511.141 511.141" width="512" xmlns="http://www.w3.org/2000/svg"><g><path d="m496.141 376.975h-25.1v-317.814c0-8.284-6.716-15-15-15h-32.188c-8.284 0-15 6.716-15 15v317.814h-30v-250.981c0-8.284-6.717-15-15-15h-32.189c-8.284 0-15 6.716-15 15v250.981h-30v-157.415c0-8.284-6.716-15-15-15h-32.188c-8.284 0-15 6.716-15 15v157.415h-30v-210.881c0-8.284-6.716-15-15-15h-32.189c-8.284 0-15 6.716-15 15v210.881h-30v-157.415c0-8.284-6.716-15-15-15h-32.187c-8.284 0-15 6.716-15 15v157.415h-25.1c-8.284 0-15 6.716-15 15s6.716 15 15 15h481.141c8.284 0 15-6.716 15-15s-6.716-15-15-15z"/><path d="m81.194 436.979h-20.002c-8.284 0-15 6.716-15 15s6.716 15 15 15h20.002c8.284 0 15-6.716 15-15s-6.715-15-15-15z"/><path d="m173.383 436.979h-20.002c-8.284 0-15 6.716-15 15s6.716 15 15 15h20.002c8.284 0 15-6.716 15-15s-6.716-15-15-15z"/><path d="m265.571 436.979h-20.002c-8.284 0-15 6.716-15 15s6.716 15 15 15h20.002c8.284 0 15-6.716 15-15s-6.716-15-15-15z"/><path d="m357.76 436.979h-20.002c-8.284 0-15 6.716-15 15s6.716 15 15 15h20.002c8.284 0 15-6.716 15-15s-6.716-15-15-15z"/><path d="m449.948 436.978h-20.002c-8.284 0-15 6.716-15 15s6.716 15 15 15h20.002c8.284 0 15-6.716 15-15s-6.716-15-15-15z"/></g></svg>