<?xml version="1.0" encoding="iso-8859-1"?>
<!-- Generator: Adobe Illustrator 19.0.0, SVG Export Plug-In . SVG Version: 6.00 Build 0)  -->
<svg version="1.1" id="Capa_1" xmlns="http://www.w3.org/2000/svg" xmlns:xlink="http://www.w3.org/1999/xlink" x="0px" y="0px"
	 viewBox="0 0 512 512" style="enable-background:new 0 0 512 512;" xml:space="preserve">
<g>
	<g>
		<path d="M448.301,279.734C450.091,271.997,451,264.061,451,256c0-53.227-39.812-97.327-91.221-104.095
			C360.576,146.666,361,141.358,361,136c0-57.897-47.103-105-105-105c-57.897,0-105,47.103-105,105
			c0,5.358,0.424,10.666,1.221,15.905C100.812,158.673,61,202.773,61,256c0,8.061,0.909,15.997,2.699,23.734
			C26.244,295.945,0,332.991,0,376c0,57.897,47.551,105,106,105c28.572,0,55.473-11.53,75.045-31.55
			C200.115,468.906,226.67,481,256,481s55.885-12.094,74.955-31.55C350.527,469.47,377.428,481,406,481c58.449,0,106-47.103,106-105
			C512,332.991,485.756,295.945,448.301,279.734z M421,256c0,5.373-0.579,10.66-1.688,15.826C414.95,271.282,410.508,271,406,271
			c-28.572,0-55.473,11.53-75.045,31.55c-15.354-15.665-35.561-26.552-58.163-30.201C271.606,267.013,271,261.544,271,256
			c0-41.355,33.645-75,75-75C387.355,181,421,214.645,421,256z M256,61c41.355,0,75,33.645,75,75c0,5.544-0.606,11.013-1.792,16.349
			c-31.044,5.011-57.574,23.677-73.208,49.623c-15.634-25.945-42.164-44.611-73.208-49.623C181.606,147.013,181,141.544,181,136
			C181,94.645,214.645,61,256,61z M166,181c41.355,0,75,33.645,75,75c0,5.544-0.606,11.013-1.792,16.349
			c-22.602,3.648-42.809,14.536-58.163,30.201C161.473,282.53,134.572,271,106,271c-4.508,0-8.95,0.282-13.312,0.826
			C91.579,266.66,91,261.373,91,256C91,214.645,124.645,181,166,181z M163.016,424.729C148.84,441.321,128.12,451,106,451
			c-41.907,0-76-33.645-76-75c0-41.611,34.413-75,76-75c22.12,0,42.84,9.68,57.016,26.271C155.348,341.843,151,358.422,151,376
			S155.348,410.157,163.016,424.729z M256,451c-41.355,0-75-33.645-75-75c0-41.355,33.645-75,75-75s75,33.645,75,75
			C331,417.355,297.355,451,256,451z M406,451c-22.12,0-42.84-9.679-57.016-26.271C356.652,410.157,361,393.578,361,376
			s-4.348-34.157-12.016-48.729C363.16,310.68,383.88,301,406,301c41.535,0,76,33.346,76,75C482,417.355,447.907,451,406,451z"/>
	</g>
</g>
<g>
	<g>
		<path d="M256,331c-8.284,0-15,6.716-15,15s6.716,15,15,15c8.271,0,15,6.729,15,15c0,8.284,6.716,15,15,15s15-6.716,15-15
			C301,351.187,280.813,331,256,331z"/>
	</g>
</g>
<g>
	<g>
		<path d="M406,331c-8.284,0-15,6.716-15,15s6.716,15,15,15c8.271,0,15,6.729,15,15c0,8.284,6.716,15,15,15s15-6.716,15-15
			C451,351.187,430.813,331,406,331z"/>
	</g>
</g>
<g>
	<g>
		<path d="M106,331c-8.284,0-15,6.716-15,15s6.716,15,15,15c8.271,0,15,6.729,15,15c0,8.284,6.716,15,15,15s15-6.716,15-15
			C151,351.187,130.813,331,106,331z"/>
	</g>
</g>
<g>
	<g>
		<path d="M166,211c-8.284,0-15,6.716-15,15s6.716,15,15,15c8.271,0,15,6.729,15,15c0,8.284,6.716,15,15,15s15-6.716,15-15
			C211,231.187,190.813,211,166,211z"/>
	</g>
</g>
<g>
	<g>
		<path d="M346,211c-8.284,0-15,6.716-15,15s6.716,15,15,15c8.271,0,15,6.729,15,15c0,8.284,6.716,15,15,15s15-6.716,15-15
			C391,231.187,370.813,211,346,211z"/>
	</g>
</g>
<g>
	<g>
		<path d="M256,91c-8.284,0-15,6.716-15,15s6.716,15,15,15c8.271,0,15,6.729,15,15c0,8.284,6.716,15,15,15s15-6.716,15-15
			C301,111.187,280.813,91,256,91z"/>
	</g>
</g>
<g>
</g>
<g>
</g>
<g>
</g>
<g>
</g>
<g>
</g>
<g>
</g>
<g>
</g>
<g>
</g>
<g>
</g>
<g>
</g>
<g>
</g>
<g>
</g>
<g>
</g>
<g>
</g>
<g>
</g>
</svg>
