<svg id="Capa_1" enable-background="new 0 0 510.984 510.984" height="512" viewBox="0 0 510.984 510.984" width="512" xmlns="http://www.w3.org/2000/svg"><g><path d="m210.747 254.982c0 24.954 20.302 45.255 45.256 45.255s45.255-20.301 45.255-45.255-20.301-45.255-45.255-45.255-45.256 20.301-45.256 45.255z"/><path d="m335.637 239.982h167.842c4.43 0 7.865-3.817 7.466-8.229-11.085-122.661-109.052-220.628-231.714-231.713-4.412-.399-8.229 3.036-8.229 7.466v167.842c0 3.356 2.233 6.296 5.462 7.209 25.074 7.094 44.868 26.888 51.962 51.962.915 3.229 3.854 5.463 7.211 5.463z"/><path d="m256.003 330.236c-12.855 0-24.959-3.253-35.553-8.963-2.908-1.567-6.498-1.031-8.834 1.304l-118.819 118.82c-3.138 3.138-2.871 8.288.553 11.113 44.257 36.51 100.935 58.474 162.653 58.474 133.368 0 243.227-102.517 254.951-232.885.393-4.368-3.091-8.118-7.476-8.118h-167.84c-3.362 0-6.298 2.243-7.214 5.478-8.942 31.576-38.021 54.777-72.421 54.777z"/><path d="m180.747 254.982c0-34.4 23.202-63.48 54.778-72.42 3.235-.916 5.478-3.852 5.478-7.215v-167.84c0-4.386-3.75-7.869-8.118-7.476-130.368 11.724-232.885 121.583-232.885 254.951 0 62.764 22.712 120.317 60.338 164.893 2.843 3.368 7.946 3.609 11.062.493l118.437-118.437c2.417-2.417 2.879-6.152 1.154-9.103-6.505-11.125-10.244-24.055-10.244-37.846z"/></g></svg>